<mxfile host="app.diagrams.net" modified="2023-01-06T11:43:52.068Z" agent="5.0 (Macintosh; Intel Mac OS X 10_15_7) AppleWebKit/605.1.15 (KHTML, like Gecko) Version/16.1 Safari/605.1.15" etag="LUd3dsrFgXobwlfF5HWL" version="20.8.1" type="github">
  <diagram id="yzxA0IpxTii8pEKlae-4" name="Side-1">
    <mxGraphModel dx="819" dy="504" grid="1" gridSize="10" guides="1" tooltips="1" connect="1" arrows="1" fold="1" page="1" pageScale="1" pageWidth="827" pageHeight="1169" math="1" shadow="0">
      <root>
        <mxCell id="0" />
        <mxCell id="1" parent="0" />
        <mxCell id="JgTM0zMBhbvU4f2Xm8r7-30" value="" style="curved=1;endArrow=none;html=1;rounded=0;strokeWidth=1;fontSize=12;endFill=0;" parent="1" edge="1">
          <mxGeometry width="50" height="50" relative="1" as="geometry">
            <mxPoint x="30" y="330" as="sourcePoint" />
            <mxPoint x="160" y="340" as="targetPoint" />
            <Array as="points">
              <mxPoint x="40" y="320" />
              <mxPoint x="80" y="350" />
              <mxPoint x="120" y="320" />
            </Array>
          </mxGeometry>
        </mxCell>
        <mxCell id="JgTM0zMBhbvU4f2Xm8r7-31" value="" style="curved=1;endArrow=none;html=1;rounded=0;strokeWidth=1;fontSize=12;endFill=0;" parent="1" edge="1">
          <mxGeometry width="50" height="50" relative="1" as="geometry">
            <mxPoint x="279.9999999999999" y="340" as="sourcePoint" />
            <mxPoint x="410" y="330" as="targetPoint" />
            <Array as="points">
              <mxPoint x="320" y="320" />
              <mxPoint x="360" y="350" />
              <mxPoint x="400" y="320" />
            </Array>
          </mxGeometry>
        </mxCell>
        <mxCell id="JgTM0zMBhbvU4f2Xm8r7-1" value="" style="rounded=0;whiteSpace=wrap;html=1;" parent="1" vertex="1">
          <mxGeometry x="170" y="90" width="100" height="60" as="geometry" />
        </mxCell>
        <mxCell id="JgTM0zMBhbvU4f2Xm8r7-25" value="" style="endArrow=none;html=1;strokeWidth=1;rounded=0;fontSize=13;exitX=0.332;exitY=-0.016;exitDx=0;exitDy=0;exitPerimeter=0;" parent="1" source="JgTM0zMBhbvU4f2Xm8r7-26" edge="1">
          <mxGeometry width="50" height="50" relative="1" as="geometry">
            <mxPoint x="190" y="240" as="sourcePoint" />
            <mxPoint x="200" y="150" as="targetPoint" />
          </mxGeometry>
        </mxCell>
        <mxCell id="JgTM0zMBhbvU4f2Xm8r7-26" value="" style="rounded=0;whiteSpace=wrap;html=1;fontSize=13;" parent="1" vertex="1">
          <mxGeometry x="160" y="320" width="120" height="40" as="geometry" />
        </mxCell>
        <mxCell id="JgTM0zMBhbvU4f2Xm8r7-27" value="" style="endArrow=none;html=1;strokeWidth=1;rounded=0;fontSize=13;entryX=0.696;entryY=1.008;entryDx=0;entryDy=0;exitX=0.654;exitY=-0.038;exitDx=0;exitDy=0;exitPerimeter=0;entryPerimeter=0;" parent="1" source="JgTM0zMBhbvU4f2Xm8r7-26" target="JgTM0zMBhbvU4f2Xm8r7-1" edge="1">
          <mxGeometry width="50" height="50" relative="1" as="geometry">
            <mxPoint x="209.83999999999992" y="329.36" as="sourcePoint" />
            <mxPoint x="208.5" y="160.66000000000008" as="targetPoint" />
          </mxGeometry>
        </mxCell>
        <mxCell id="JrTcrJsVLr_1SCGYKZp2-33" value="" style="ellipse;whiteSpace=wrap;html=1;aspect=fixed;dashed=1;" parent="1" vertex="1">
          <mxGeometry x="200" y="320" width="40" height="40" as="geometry" />
        </mxCell>
        <mxCell id="JrTcrJsVLr_1SCGYKZp2-34" value="" style="rounded=1;whiteSpace=wrap;html=1;" parent="1" vertex="1">
          <mxGeometry x="150" y="110" width="20" height="20" as="geometry" />
        </mxCell>
        <mxCell id="JrTcrJsVLr_1SCGYKZp2-35" value="" style="ellipse;whiteSpace=wrap;html=1;" parent="1" vertex="1">
          <mxGeometry x="140" y="120" width="20" height="60" as="geometry" />
        </mxCell>
        <mxCell id="JrTcrJsVLr_1SCGYKZp2-36" value="" style="ellipse;whiteSpace=wrap;html=1;" parent="1" vertex="1">
          <mxGeometry x="140" y="60" width="20" height="60" as="geometry" />
        </mxCell>
        <mxCell id="JrTcrJsVLr_1SCGYKZp2-37" value="" style="ellipse;whiteSpace=wrap;html=1;aspect=fixed;dashed=1;" parent="1" vertex="1">
          <mxGeometry x="215" y="335" width="10" height="10" as="geometry" />
        </mxCell>
        <mxCell id="JrTcrJsVLr_1SCGYKZp2-40" value="" style="rounded=0;whiteSpace=wrap;html=1;rotation=14;dashed=1;" parent="1" vertex="1">
          <mxGeometry x="253" y="96" width="100" height="60" as="geometry" />
        </mxCell>
        <mxCell id="JrTcrJsVLr_1SCGYKZp2-41" value="" style="endArrow=none;html=1;strokeWidth=1;rounded=0;fontSize=13;exitX=0.332;exitY=-0.016;exitDx=0;exitDy=0;exitPerimeter=0;dashed=1;" parent="1" source="JrTcrJsVLr_1SCGYKZp2-42" edge="1">
          <mxGeometry width="50" height="50" relative="1" as="geometry">
            <mxPoint x="245" y="235" as="sourcePoint" />
            <mxPoint x="277" y="150" as="targetPoint" />
          </mxGeometry>
        </mxCell>
        <mxCell id="JrTcrJsVLr_1SCGYKZp2-42" value="" style="rounded=0;whiteSpace=wrap;html=1;fontSize=13;rotation=14;dashed=1;" parent="1" vertex="1">
          <mxGeometry x="190" y="320" width="120" height="40" as="geometry" />
        </mxCell>
        <mxCell id="JrTcrJsVLr_1SCGYKZp2-43" value="" style="endArrow=none;html=1;strokeWidth=1;rounded=0;fontSize=13;entryX=0.696;entryY=1.008;entryDx=0;entryDy=0;exitX=0.654;exitY=-0.038;exitDx=0;exitDy=0;exitPerimeter=0;entryPerimeter=0;dashed=1;" parent="1" source="JrTcrJsVLr_1SCGYKZp2-42" target="JrTcrJsVLr_1SCGYKZp2-40" edge="1">
          <mxGeometry width="50" height="50" relative="1" as="geometry">
            <mxPoint x="243" y="327" as="sourcePoint" />
            <mxPoint x="282" y="163" as="targetPoint" />
          </mxGeometry>
        </mxCell>
        <mxCell id="JrTcrJsVLr_1SCGYKZp2-44" value="" style="ellipse;whiteSpace=wrap;html=1;aspect=fixed;dashed=1;rotation=14;" parent="1" vertex="1">
          <mxGeometry x="230" y="320" width="40" height="40" as="geometry" />
        </mxCell>
        <mxCell id="JrTcrJsVLr_1SCGYKZp2-45" value="" style="rounded=1;whiteSpace=wrap;html=1;rotation=14;dashed=1;" parent="1" vertex="1">
          <mxGeometry x="235" y="102" width="20" height="20" as="geometry" />
        </mxCell>
        <mxCell id="JrTcrJsVLr_1SCGYKZp2-46" value="" style="ellipse;whiteSpace=wrap;html=1;rotation=14;dashed=1;" parent="1" vertex="1">
          <mxGeometry x="218" y="108" width="20" height="60" as="geometry" />
        </mxCell>
        <mxCell id="JrTcrJsVLr_1SCGYKZp2-47" value="" style="ellipse;whiteSpace=wrap;html=1;rotation=14;dashed=1;" parent="1" vertex="1">
          <mxGeometry x="233" y="50" width="20" height="60" as="geometry" />
        </mxCell>
        <mxCell id="JrTcrJsVLr_1SCGYKZp2-48" value="" style="ellipse;whiteSpace=wrap;html=1;aspect=fixed;dashed=1;rotation=14;" parent="1" vertex="1">
          <mxGeometry x="245" y="335" width="10" height="10" as="geometry" />
        </mxCell>
        <mxCell id="JrTcrJsVLr_1SCGYKZp2-55" value="" style="endArrow=none;html=1;rounded=0;strokeColor=#0000CC;" parent="1" edge="1">
          <mxGeometry x="-0.1982" y="-20" width="50" height="50" relative="1" as="geometry">
            <mxPoint x="253" y="320" as="sourcePoint" />
            <mxPoint x="253.11" y="270" as="targetPoint" />
            <mxPoint as="offset" />
          </mxGeometry>
        </mxCell>
        <mxCell id="JrTcrJsVLr_1SCGYKZp2-56" value="" style="endArrow=none;html=1;rounded=0;strokeColor=#0000CC;" parent="1" edge="1">
          <mxGeometry width="50" height="50" relative="1" as="geometry">
            <mxPoint x="253" y="320" as="sourcePoint" />
            <mxPoint x="271.11" y="270" as="targetPoint" />
          </mxGeometry>
        </mxCell>
        <mxCell id="JrTcrJsVLr_1SCGYKZp2-57" value="" style="curved=1;endArrow=none;html=1;rounded=0;strokeColor=#0000CC;endFill=0;" parent="1" edge="1">
          <mxGeometry width="50" height="50" relative="1" as="geometry">
            <mxPoint x="253.11" y="279" as="sourcePoint" />
            <mxPoint x="267.11" y="280" as="targetPoint" />
            <Array as="points">
              <mxPoint x="259.11" y="277" />
              <mxPoint x="263.11" y="278" />
            </Array>
          </mxGeometry>
        </mxCell>
        <mxCell id="sOnbfFry4AZLsL4lOkVm-1" value="" style="endArrow=none;html=1;rounded=0;strokeWidth=1;fontSize=12;" edge="1" parent="1">
          <mxGeometry width="50" height="50" relative="1" as="geometry">
            <mxPoint x="310" y="80" as="sourcePoint" />
            <mxPoint x="310" y="50" as="targetPoint" />
          </mxGeometry>
        </mxCell>
        <mxCell id="sOnbfFry4AZLsL4lOkVm-2" value="" style="endArrow=none;html=1;rounded=0;strokeWidth=1;fontSize=12;endFill=0;startArrow=classic;startFill=1;" edge="1" parent="1">
          <mxGeometry width="50" height="50" relative="1" as="geometry">
            <mxPoint x="400" y="65" as="sourcePoint" />
            <mxPoint x="310" y="65" as="targetPoint" />
          </mxGeometry>
        </mxCell>
        <mxCell id="sOnbfFry4AZLsL4lOkVm-4" value="$$ v_y $$" style="text;html=1;strokeColor=none;fillColor=none;align=center;verticalAlign=middle;whiteSpace=wrap;rounded=0;glass=0;dashed=1;strokeWidth=2;fontSize=12;" vertex="1" parent="1">
          <mxGeometry x="300" y="30" width="60" height="30" as="geometry" />
        </mxCell>
      </root>
    </mxGraphModel>
  </diagram>
</mxfile>
